<?xml version="1.0" encoding="UTF-8"?>
<svg width="1024px" height="585px" viewBox="0 0 1024 585" version="1.1" xmlns="http://www.w3.org/2000/svg" xmlns:xlink="http://www.w3.org/1999/xlink">
    <!-- Generator: Sketch 47 (45396) - http://www.bohemiancoding.com/sketch -->
    <title>Group</title>
    <desc>Created with Sketch.</desc>
    <defs>
        <linearGradient x1="44.9445518%" y1="4.61191403%" x2="51.601719%" y2="76.6678218%" id="linearGradient-1">
            <stop stop-color="#1526AE" offset="0%"></stop>
            <stop stop-color="#0A0034" offset="100%"></stop>
        </linearGradient>
        <linearGradient x1="50%" y1="0%" x2="50%" y2="100%" id="linearGradient-2">
            <stop stop-color="#5525FF" offset="0%"></stop>
            <stop stop-color="#0A0034" offset="100%"></stop>
        </linearGradient>
    </defs>
    <g id="Page-1" stroke="none" stroke-width="1" fill="none" fill-rule="evenodd">
        <g id="Desktop" transform="translate(0.000000, -175.000000)">
            <g id="Group" transform="translate(-810.000000, 172.000000)">
                <path d="M21.047199,436.258067 L262.841097,125.196415 L262.841097,125.196415 C275.718724,108.629677 293.481359,96.5334925 313.614082,90.6204965 L598.13648,7.05605276 L598.13648,7.05605276 C613.90943,2.42352528 630.581195,1.75098225 646.67604,5.09795511 L873.578886,52.2831036 L873.578886,52.2831036 C898.560408,57.4780883 920.611166,72.0260536 935.216527,92.9484753 L1046.77337,252.755506 L1046.77337,252.755506 C1054.48805,263.806912 1064.35712,273.184789 1075.78764,280.325723 L1567.36323,587.425245 L0,587.425245" id="Path" fill="url(#linearGradient-1)"></path>
                <path d="M805.047199,436.258067 L1046.8411,125.196415 L1046.8411,125.196415 C1059.71872,108.629677 1077.48136,96.5334925 1097.61408,90.6204965 L1382.13648,7.05605276 L1382.13648,7.05605276 C1397.90943,2.42352528 1414.5812,1.75098225 1430.67604,5.09795511 L1657.57889,52.2831036 L1657.57889,52.2831036 C1682.56041,57.4780883 1704.61117,72.0260536 1719.21653,92.9484753 L1830.77337,252.755506 L1830.77337,252.755506 C1838.48805,263.806912 1848.35712,273.184789 1859.78764,280.325723 L2351.36323,587.425245 L784,587.425245" id="Path" fill="url(#linearGradient-2)"></path>
            </g>
        </g>
    </g>
</svg>